<svg xmlns="http://www.w3.org/2000/svg" viewBox="0 0 145 28">
  <g fill="none" fill-rule="evenodd">
    <path currentColor='inherit' fill="#151918" d="M138.731 11.402c0-.614.593-.933 1.322-.933.635 0 1.15.246 1.514.677a.432.432 0 0 0 .533.106l1.742-.93a.434.434 0 0 0 .137-.65c-.926-1.186-2.329-1.82-3.926-1.82-2.348 0-4.332 1.297-4.332 3.618 0 4.007 5.883 3.096 5.883 4.758 0 .66-.638.978-1.573.978-.911 0-1.584-.35-1.982-.967a.43.43 0 0 0-.564-.15l-1.8.961a.437.437 0 0 0-.162.615c.893 1.429 2.459 2.205 4.508 2.205 2.44 0 4.584-1.183 4.584-3.642 0-4.189-5.884-3.141-5.884-4.826m-8.494 8.092h-1.294a.863.863 0 0 1-.863-.861V14.01a5.84 5.84 0 0 1 5.846-5.834h.001c.474 0 .859.383.859.857v1.3a.858.858 0 0 1-.859.858h-.002a2.822 2.822 0 0 0-2.824 2.82v4.62a.863.863 0 0 1-.864.862m-9.766-2.491c-1.733 0-3.078-1.297-3.078-3.141s1.345-3.141 3.078-3.141c1.756 0 3.102 1.297 3.102 3.14 0 1.845-1.346 3.142-3.102 3.142m0-9.15c-3.353 0-6.02 2.617-6.02 6.009 0 3.391 2.667 6.01 6.02 6.01 3.353 0 6.043-2.619 6.043-6.01 0-3.392-2.69-6.01-6.043-6.01m-10.462-3.356h-1.216a.862.862 0 0 0-.863.862v10.37c0 2.863 1.206 4.105 4.709 3.895a.866.866 0 0 0 .81-.862v-.98a.865.865 0 0 0-.876-.86c-1.117.007-1.701-.197-1.701-1.193v-4.734h1.714a.862.862 0 0 0 .863-.862v-1.1a.863.863 0 0 0-.863-.86h-1.714V5.356a.863.863 0 0 0-.863-.862m-9.749 12.508c-1.733 0-3.078-1.297-3.078-3.141s1.345-3.141 3.078-3.141c1.756 0 3.102 1.297 3.102 3.14 0 1.845-1.346 3.142-3.102 3.142m0-9.15c-3.353 0-6.02 2.617-6.02 6.009 0 3.391 2.667 6.01 6.02 6.01 3.353 0 6.043-2.619 6.043-6.01 0-3.392-2.69-6.01-6.043-6.01m-11.877.016a4.907 4.907 0 0 0-3.81 1.365 4.908 4.908 0 0 0-3.81-1.365c-2.585.205-4.525 2.465-4.525 5.054v5.914c0 .476.387.861.863.861h1.295a.862.862 0 0 0 .863-.861V12.85c0-.99.724-1.877 1.712-1.974a1.903 1.903 0 0 1 2.092 1.89v6.069a.86.86 0 0 0 .863.861h1.294a.862.862 0 0 0 .864-.861V12.85c0-.99.724-1.878 1.711-1.974a1.902 1.902 0 0 1 2.091 1.89v6.069c0 .476.387.861.863.861h1.295a.862.862 0 0 0 .863-.861V12.92c0-2.589-1.94-4.85-4.524-5.054M68.94 16.915c-1.73 0-3.072-1.293-3.077-3.132v-.018c.005-1.839 1.348-3.132 3.078-3.132 1.756 0 3.101 1.298 3.101 3.141 0 1.844-1.345 3.141-3.101 3.141m0-9.15c-1.13 0-2.18.303-3.078.828V4.479A.862.862 0 0 0 65 3.618h-1.216a.862.862 0 0 0-.863.861v9.334h.002c.02 3.372 2.68 5.97 6.018 5.97 3.352 0 6.043-2.617 6.043-6.009 0-3.392-2.69-6.009-6.043-6.009m-13.402 2.781c1.228 0 2.254.636 2.76 1.65H52.8c.505-1.014 1.526-1.65 2.739-1.65Zm3.134 5.331c-.318-.17-.72-.138-.98.112-.55.529-1.3.84-2.154.84-1.237 0-2.274-.663-2.767-1.711a.434.434 0 0 1 .387-.626h7.616a.808.808 0 0 0 .807-.805c0-3.391-2.69-6.009-6.043-6.009s-6.02 2.618-6.02 6.01 2.667 6.01 6.02 6.01a6.03 6.03 0 0 0 4.448-1.917c.379-.408.25-1.068-.24-1.33l-1.074-.574Zm-13.476-1.094c0 1.11-.958 2-2.092 1.89-.988-.097-1.711-.984-1.711-1.975V8.713a.863.863 0 0 0-.863-.861h-1.295a.862.862 0 0 0-.863.861v5.985c0 .991-.724 1.878-1.712 1.974a1.903 1.903 0 0 1-2.092-1.889v-6.07a.862.862 0 0 0-.863-.861h-1.295a.863.863 0 0 0-.863.861v5.915c0 2.588 1.94 4.849 4.525 5.053a4.908 4.908 0 0 0 3.81-1.364 4.907 4.907 0 0 0 3.81 1.364c2.584-.204 4.525-2.465 4.525-5.053V8.713a.863.863 0 0 0-.863-.861H46.06a.863.863 0 0 0-.863.861v6.07Z"/>
    <path currentColor='inherit' fill="#F51344" d="M13.891 0C6.22 0 .001 6.208.001 13.866c0 7.658 6.219 13.866 13.89 13.866 7.672 0 13.89-6.208 13.89-13.866C27.782 6.208 21.564 0 13.892 0Z"/>
    <path currentColor='inherit' fill="#FFF" d="M21.656 18.476c0 .655-.548 1.181-1.211 1.146-.622-.032-1.088-.59-1.088-1.21v-2.536a.862.862 0 0 0-.863-.862h-2.59a.862.862 0 0 0-.863.862v3.462a1.15 1.15 0 0 1-1.212 1.146c-.621-.033-1.087-.59-1.087-1.211v-3.397a.863.863 0 0 0-.864-.862H9.29a.862.862 0 0 0-.863.862v2.6c0 .655-.549 1.181-1.212 1.146-.622-.032-1.088-.59-1.088-1.21V9.255c0-.654.548-1.181 1.211-1.146.623.032 1.09.59 1.09 1.211v2.535c0 .476.385.862.862.862h2.59a.863.863 0 0 0 .863-.862V8.394c0-.654.548-1.18 1.21-1.146.623.032 1.09.59 1.09 1.211v3.397c0 .476.385.862.862.862h2.59a.862.862 0 0 0 .863-.862V9.321c0-.622.466-1.179 1.088-1.211a1.149 1.149 0 0 1 1.211 1.146v9.22Z"/>
  </g>
</svg>